<?xml version="1.0" encoding="UTF-8" standalone="no"?>
<!DOCTYPE svg PUBLIC "-//W3C//DTD SVG 20010904//EN"
              "http://www.w3.org/TR/2001/REC-SVG-20010904/DTD/svg10.dtd">

<svg xmlns="http://www.w3.org/2000/svg"
     width="10.1389in" height="10.1528in"
     viewBox="0 0 730 731">
  <path id="Selection"
        fill="black" stroke="black" stroke-width="1"
        d="M 295.00,298.00
           C 295.00,298.00 281.44,284.00 281.44,284.00
             266.34,266.10 250.21,236.72 244.15,214.00
             241.74,204.93 240.05,191.39 240.00,182.00
             240.00,182.00 239.00,166.00 239.00,166.00
             238.96,143.47 237.19,132.13 247.75,111.00
             249.95,106.60 252.91,100.67 256.21,97.09
             256.21,97.09 270.00,85.40 270.00,85.40
             277.84,79.13 290.35,69.46 300.00,66.78
             310.46,63.88 328.32,65.26 339.00,67.40
             346.42,68.88 360.27,71.35 365.21,77.21
             369.03,81.73 370.59,88.33 371.79,94.00
             373.64,102.75 375.01,123.82 375.00,133.00
             375.00,133.00 374.00,150.00 374.00,150.00
             374.00,150.00 372.00,196.00 372.00,196.00
             372.00,196.00 371.00,215.00 371.00,215.00
             371.00,215.00 370.00,232.00 370.00,232.00
             370.00,232.00 368.00,278.00 368.00,278.00
             368.00,278.00 367.00,293.00 367.00,293.00
             367.00,293.00 395.15,261.00 395.15,261.00
             395.15,261.00 460.15,186.00 460.15,186.00
             466.52,178.77 476.48,165.73 485.00,161.90
             488.47,160.35 495.17,158.90 498.58,161.17
             502.05,163.48 502.90,172.19 502.34,176.00
             500.99,185.29 487.07,199.57 480.73,207.00
             480.73,207.00 421.72,277.00 421.72,277.00
             421.72,277.00 376.00,327.00 376.00,327.00
             376.00,327.00 408.00,349.29 408.00,349.29
             408.00,349.29 458.00,385.15 458.00,385.15
             473.59,396.52 497.46,412.91 515.00,420.42
             515.00,420.42 551.00,435.40 551.00,435.40
             555.70,437.29 561.53,439.66 560.33,446.00
             559.41,450.82 554.30,453.47 550.00,454.70
             543.71,456.50 540.87,455.69 535.00,456.09
             535.00,456.09 513.00,457.96 513.00,457.96
             513.00,457.96 469.00,460.91 469.00,460.91
             469.00,460.91 416.00,464.09 416.00,464.09
             416.00,464.09 372.00,467.09 372.00,467.09
             372.00,467.09 360.00,468.00 360.00,468.00
             358.91,476.30 359.01,478.79 359.00,487.00
             359.00,487.00 358.04,499.00 358.04,499.00
             358.04,499.00 358.04,511.00 358.04,511.00
             358.04,511.00 356.96,526.00 356.96,526.00
             356.96,526.00 356.96,540.00 356.96,540.00
             356.96,540.00 356.00,552.00 356.00,552.00
             356.00,552.00 354.00,608.00 354.00,608.00
             354.00,608.00 353.04,620.00 353.04,620.00
             353.04,620.00 353.04,632.00 353.04,632.00
             353.04,632.00 352.00,647.00 352.00,647.00
             351.87,658.45 352.73,671.27 345.21,680.91
             338.34,689.72 324.25,687.21 321.76,676.00
             319.92,669.35 321.92,661.71 321.76,655.00
             321.76,655.00 323.00,617.00 323.00,617.00
             323.00,617.00 323.96,605.00 323.96,605.00
             323.96,605.00 323.96,591.00 323.96,591.00
             323.96,591.00 324.96,579.00 324.96,579.00
             324.96,579.00 324.96,564.00 324.96,564.00
             324.96,564.00 326.00,549.00 326.00,549.00
             326.00,549.00 326.00,536.00 326.00,536.00
             326.00,536.00 327.00,523.00 327.00,523.00
             327.00,523.00 327.00,510.00 327.00,510.00
             327.00,510.00 328.00,495.00 328.00,495.00
             328.01,486.11 327.81,482.02 329.00,473.00
             329.00,473.00 288.00,476.83 288.00,476.83
             288.00,476.83 230.00,482.58 230.00,482.58
             230.00,482.58 204.00,485.00 204.00,485.00
             199.78,485.00 195.56,484.93 192.30,481.61
             188.55,477.50 190.15,470.62 192.30,466.00
             196.05,457.15 201.46,454.22 208.00,447.96
             208.00,447.96 218.00,438.17 218.00,438.17
             218.00,438.17 285.00,375.09 285.00,375.09
             285.00,375.09 334.00,329.00 334.00,329.00
             321.65,322.95 304.81,307.81 295.00,298.00 Z
           M 340.00,276.00
           C 340.00,276.00 341.00,261.00 341.00,261.00
             341.00,261.00 341.00,241.00 341.00,241.00
             341.00,241.00 342.00,226.00 342.00,226.00
             342.00,226.00 342.00,206.00 342.00,206.00
             342.00,206.00 343.00,191.00 343.00,191.00
             343.00,191.00 343.00,172.00 343.00,172.00
             343.00,172.00 347.00,131.00 347.00,131.00
             347.00,131.00 347.00,110.00 347.00,110.00
             346.95,106.35 346.66,101.23 344.28,98.27
             341.27,94.54 330.72,92.42 326.00,92.09
             308.00,90.83 286.03,103.69 275.79,118.00
             268.86,127.68 267.06,142.33 267.00,154.00
             267.00,154.00 268.91,186.00 268.91,186.00
             269.47,193.61 271.12,209.12 273.55,216.00
             278.70,230.61 296.10,255.69 306.00,268.00
             313.48,277.30 329.41,295.23 340.00,300.00
             340.00,300.00 340.00,276.00 340.00,276.00 Z
           M 364.00,372.00
           C 364.00,372.00 363.00,389.00 363.00,389.00
             363.00,389.00 362.00,422.00 362.00,422.00
             362.00,422.00 361.00,440.00 361.00,440.00
             361.00,440.00 394.00,438.09 394.00,438.09
             394.00,438.09 439.00,435.09 439.00,435.09
             439.00,435.09 474.00,432.00 474.00,432.00
             474.00,432.00 403.00,381.42 403.00,381.42
             403.00,381.42 366.00,355.00 366.00,355.00
             362.80,359.35 364.01,366.72 364.00,372.00 Z
           M 315.00,386.00
           C 315.00,386.00 304.00,396.04 304.00,396.04
             304.00,396.04 284.00,416.00 284.00,416.00
             284.00,416.00 250.00,450.00 250.00,450.00
             250.00,450.00 284.00,446.83 284.00,446.83
             284.00,446.83 307.00,444.83 307.00,444.83
             307.00,444.83 331.00,443.00 331.00,443.00
             331.00,443.00 331.91,432.00 331.91,432.00
             331.91,432.00 333.91,405.00 333.91,405.00
             333.91,405.00 337.00,365.00 337.00,365.00
             337.00,365.00 315.00,386.00 315.00,386.00 Z" />
</svg>
